# xmcd
#
# Track frame offsets:
#	150
#	14376
#	27909
#	42292
#	56661
#	69339
#	82286
#	96538
#	111052
#	124980
#	138211
#	152402
#	166187
#	180421
#	194892
#	207365
#	218895
#	232163
#	246391
#	259549
#
# Disc length: 3618 seconds
#
# Revision: 1
# Processed by: cddbd v1.5.2PL0 Copyright (c) Steve Scherf et al.
# Submitted via: audiograbber 1.83.01
#
DISCID=250e2014
DTITLE=Various Artist - Hit Club The Hits 1946
DYEAR=1946
DGENRE=Swing
TTITLE0=Edith Piaf - La Vie En Rose
TTITLE1=Dinah Shore - The Gypsy
TTITLE2=Dick Haymes - It Might As Well Be Spring
TTITLE3=June Christy - Willow Weep For Me
TTITLE4=Louis Jordan - Choo-Choo
TTITLE5=Johnny Mercer - Personality
TTITLE6=Kay Kyser - Ole Buttermilk Sky
TTITLE7=Ella Fitzgerald  - I Love You For Sentimental
TTITLE8=Nat King Cole - (Get Your Kicks On) Route 66
TTITLE9=Frankie Carl - Rumors Are Flying
TTITLE10=Sammy Kaye - I'm A Big Girl Now
TTITLE11=Tex Beneke With Glenn Miller Orchestra - Hey! Ba-Ba-Re-Bop
TTITLE12=Bing Crosby With The Andrew Singers - South America, Take It Away
TTITLE13=The Ink Spots - To Each His Own
TTITLE14=Louis Prima - Just A Gigolo
TTITLE15=Tex Beneke With Glenn Miller Orchestra - Five Minutes More
TTITLE16=Bing Crosby With Carmen Cavallaro Orchestra - I Can't Begin To Tell Yo
TTITLE16=u
TTITLE17=Les Brown Orchestra - You Won't Be Satisfied (Until You Break My Heart
TTITLE17=)
TTITLE18=Al Jolson - Rock A Bye Your Baby
TTITLE19=Bing Crosby - A Gal In Galico
EXTD=
EXTT0=
EXTT1=
EXTT2=
EXTT3=
EXTT4=
EXTT5=
EXTT6=
EXTT7=
EXTT8=
EXTT9=
EXTT10=
EXTT11=
EXTT12=
EXTT13=
EXTT14=
EXTT15=
EXTT16=
EXTT17=
EXTT18=
EXTT19=
PLAYORDER=
